<?xml version="1.0" encoding="UTF-8" standalone="no"?><!DOCTYPE svg PUBLIC "-//W3C//DTD SVG 1.1//EN" "http://www.w3.org/Graphics/SVG/1.1/DTD/svg11.dtd">
<svg width="100%" height="100%" viewBox="0 0 4500 4500" version="1.1" xmlns="http://www.w3.org/2000/svg" xmlns:xlink="http://www.w3.org/1999/xlink" xml:space="preserve" xmlns:serif="http://www.serif.com/" style="fill-rule:evenodd;clip-rule:evenodd;stroke-linecap:square;stroke-linejoin:round;stroke-miterlimit:1.5;">
<path id="left" d="M2250,852.633c-204.462,0 -400.546,81.221 -545.125,225.796c-144.575,144.575 -225.796,340.663 -225.796,545.125l0,1252.89c0,204.462 81.221,400.55 225.796,545.125c144.579,144.575 340.663,225.796 545.125,225.796" style="fill:none;stroke-width:162.54px;"/>
<path id="right" d="M2250,3647.37c204.463,-0 400.546,-81.221 545.125,-225.796c144.575,-144.575 225.796,-340.663 225.796,-545.125l-0,-1252.89c-0,-204.462 -81.221,-400.55 -225.796,-545.125c-144.579,-144.575 -340.662,-225.796 -545.125,-225.796" style="fill:none;stroke-width:162.54px;"/>
<path id="scroll" d="M2331.78,1522.53c0,-45.166 -36.613,-81.775 -81.775,-81.775c-45.162,0 -81.775,36.609 -81.775,81.775l0,381.829c0,45.163 36.613,81.775 81.775,81.775c45.163,0 81.775,-36.612 81.775,-81.775l0,-381.829Z"/>
<path id="wheelup" d="M2372.71,1684.8l0,-190.377c0,-51.816 -54.94,-93.814 -122.71,-93.814c-67.77,0 -122.71,41.998 -122.71,93.814l-0,190.492" style="fill:none;stroke-width:39.01px;stroke-linecap:butt;stroke-miterlimit:2;"/>
<path id="wheeldown" d="M2127.29,1732.44l-0,200.026c-0,51.812 54.94,93.814 122.71,93.814c67.77,0 122.71,-42.002 122.71,-93.814l0,-200.142" style="fill:none;stroke-width:39.01px;stroke-linecap:butt;stroke-miterlimit:2;"/>
<rect id="forward" x="1398.53" y="2093.75" width="161.096" height="323.713"/>
<rect id="backward" x="1398.53" y="2613.79" width="161.096" height="323.713"/>
</svg>