<?xml version="1.0" encoding="UTF-8" standalone="no"?>
<!DOCTYPE svg PUBLIC "-//W3C//DTD SVG 1.1//EN" "http://www.w3.org/Graphics/SVG/1.1/DTD/svg11.dtd">
<svg width="100%" height="100%" viewBox="0 0 4500 4500" version="1.1" xmlns="http://www.w3.org/2000/svg" xmlns:xlink="http://www.w3.org/1999/xlink" xml:space="preserve" xmlns:serif="http://www.serif.com/" style="fill-rule:evenodd;clip-rule:evenodd;stroke-linejoin:round;stroke-miterlimit:2;">
<path id="right" d="M2250,781.045l1.628,0c223.015,0 436.897,88.593 594.592,246.289c157.696,157.695 246.289,371.577 246.289,594.592c-0,391.089 -0,865.059 -0,1256.15c-0,223.015 -88.593,436.897 -246.289,594.592c-157.695,157.696 -371.577,246.289 -594.592,246.289l-1.628,-0l0,-143.176l1.628,-0c185.043,-0 362.507,-73.508 493.352,-204.353c130.845,-130.845 204.353,-308.309 204.353,-493.352l-0,-1256.15c-0,-185.043 -73.508,-362.507 -204.353,-493.352c-130.845,-130.845 -308.309,-204.353 -493.352,-204.353l-1.628,0l0,-143.176Z" />
<path id="left" d="M2250,781.045l-1.628,0c-223.015,0 -436.897,88.593 -594.592,246.289c-157.696,157.695 -246.289,371.577 -246.289,594.592c0,391.089 0,865.059 0,1256.15c0,223.015 88.593,436.897 246.289,594.592c157.695,157.696 371.577,246.289 594.592,246.289l1.628,-0l0,-143.176l-1.628,-0c-185.043,-0 -362.507,-73.508 -493.352,-204.353c-130.845,-130.845 -204.353,-308.309 -204.353,-493.352l0,-1256.15c0,-185.043 73.508,-362.507 204.353,-493.352c130.845,-130.845 308.309,-204.353 493.352,-204.353l1.628,0l0,-143.17"/>
<path id="forward" d="M1380.27,1896.07l-0.008,-0c-22.114,-0 -43.323,8.785 -58.961,24.422c-15.637,15.637 -24.422,36.846 -24.422,58.961l0,247.012c0,22.115 8.785,43.324 24.422,58.961c15.638,15.638 36.847,24.423 58.961,24.423l0.008,-0l0,-413.779Z" />
<path id="backward" d="M1380.27,2374.65l-0.008,-0c-22.114,-0 -43.323,8.785 -58.961,24.422c-15.637,15.637 -24.422,36.846 -24.422,58.961c0,71.88 0,175.133 0,247.012c0,22.115 8.785,43.324 24.422,58.961c15.638,15.638 36.847,24.423 58.961,24.423l0.008,-0l0,-413.779Z" />
<path id="scroll" d="M2338.18,1551c-0,-23.385 -9.29,-45.813 -25.826,-62.349c-16.536,-16.536 -38.964,-25.826 -62.349,-25.826c-0.005,0 -0.009,0 -0.014,0c-23.385,0 -45.813,9.29 -62.349,25.826c-16.536,16.536 -25.826,38.964 -25.826,62.349c0,100.177 0,262.707 0,362.883c0,23.386 9.29,45.813 25.826,62.349c16.536,16.536 38.964,25.826 62.349,25.826c0.005,0 0.009,0 0.014,0c23.385,0 45.813,-9.29 62.349,-25.826c16.536,-16.536 25.826,-38.963 25.826,-62.349c-0,-100.176 -0,-262.706 -0,-362.883Z" />
<path id="wheeldown" d="M2386.7,1917.77c0,75.448 -61.254,136.702 -136.701,136.702c-75.447,-0 -136.701,-61.254 -136.701,-136.702l36.122,0c-0,55.512 45.068,100.58 100.579,100.58c55.511,-0 100.579,-45.068 100.579,-100.58l36.122,0Z"/>
<path id="wheelup" d="M2386.7,1547.09c0,-75.448 -61.254,-136.702 -136.701,-136.702c-75.447,0 -136.701,61.254 -136.701,136.702l36.122,-0c-0,-55.511 45.068,-100.58 100.579,-100.58c55.511,0 100.579,45.069 100.579,100.58l36.122,-0Z" />
  <linearGradient id="gradient-vertical" x2="1" y2="1">
     <stop offset="0%" stop-color="#447799" />
    <stop offset="50%" stop-color="#224488" />
    <stop offset="100%" stop-color="#112266" />
  </linearGradient>
</svg>